<?xml version="1.0"?>
<svg width="640" height="480" xmlns="http://www.w3.org/2000/svg" xmlns:svg="http://www.w3.org/2000/svg">
 <!-- Created with SVG-edit - https://github.com/SVG-Edit/svgedit-->
 <g class="layer">
  <title>Layer 1</title>
  <ellipse cx="109.500001" cy="113.525317" fill="#2f79c4" id="svg_5" rx="103.000001" ry="43.025317" stroke="#7785d8" stroke-width="5"/>
  <text fill="#000000" font-family="Cursive" font-size="24" font-weight="bold" id="svg_1" stroke="#7785d8" stroke-width="0" text-anchor="middle" transform="matrix(1.6735 0 0 1.26183 -208.037 -67.323)" x="190.051598" xml:space="preserve" y="150.851837">DAHS</text>
  <path d="m120.171038,32.100452c0,0 2.10294,-8.694135 0,-11.639242c-2.105417,-2.945107 -2.945107,-4.906861 -7.574548,-6.311298s-2.94263,-1.124541 -6.308821,-0.980876c-3.366191,0.141187 -6.172588,1.961754 -6.172588,2.94263c0,0 -2.10294,0.141187 -2.94263,0.983353c-0.842167,0.842167 -2.244127,4.765674 -2.244127,5.749028s0.70098,7.574548 1.40196,8.976509l-0.834736,0.279897c-0.70098,8.131865 2.803921,9.115218 2.803921,9.115218c1.260773,7.574548 2.524024,4.349544 2.524024,6.311298s-1.26325,1.26325 -1.26325,1.26325s-1.119587,3.083817 -3.923507,4.20588c-2.803921,1.119587 -18.369147,7.148511 -19.634874,8.411762c-1.265727,1.265727 -1.122064,7.153464 -1.122064,7.153464l66.746681,0c0,0 0.146141,-5.887737 -1.119587,-7.153464c-1.268204,-1.265727 -16.83343,-7.292175 -19.637351,-8.411762c-2.803921,-1.122064 -3.923507,-4.20588 -3.923507,-4.20588s-1.26325,0.698503 -1.26325,-1.26325s1.26325,1.26325 2.526501,-6.311298c0,0 3.502424,-0.983353 2.803921,-9.115218l-0.842167,0l0,-0.000001l-0.000001,0z" fill="#000000" id="svg_2" stroke="#7785d8" stroke-width="5"/>
 </g>
</svg>